# Blender v2.83.20 OBJ File: ''
# www.blender.org
mtllib untitled.mtl
o Object_4_Object_0
v 1.415184 1.000000 1.000000
v 1.415184 1.000000 1.000000
v 1.415184 1.000000 1.000000
v 1.415184 1.000000 1.000000
v 1.415184 1.000000 1.000000
v 1.415184 1.000000 1.000000
v 1.415184 0.000000 1.000000
v 1.415184 0.000000 1.000000
v 1.415184 0.000000 1.000000
v 1.415184 0.000000 1.000000
v 1.415184 1.000000 -1.354454
v 1.415184 1.000000 -1.354454
v 1.415184 1.000000 -1.354454
v 1.415184 1.000000 -1.354454
v 1.415184 1.000000 -1.354454
v 1.415184 1.000000 2.698070
v 1.415184 1.000000 2.698070
v 1.415184 1.000000 2.698070
v 1.415184 1.000000 2.698070
v 1.415184 0.000000 2.698070
v 1.415184 0.000000 2.698070
v 1.415184 0.000000 2.698070
v 0.958809 2.066267 0.494700
v 0.958809 2.066267 0.494700
v 0.958809 2.066267 0.494700
v 0.958809 2.066267 -1.000000
v 0.958809 2.066267 -1.000000
v 0.958809 2.066267 -1.000000
v 1.415184 0.000000 -2.348768
v 1.415184 0.000000 -2.348768
v 1.415184 0.000000 -2.348768
v 1.415184 1.000000 -2.348768
v 1.415184 1.000000 -2.348768
v 1.415184 1.000000 -2.348768
v 1.415184 1.000000 -2.348768
v 1.415184 1.000000 1.849035
v 1.415184 1.000000 1.849035
v 1.415184 1.000000 1.849035
v 1.415184 0.466949 1.849035
v 1.415184 0.466949 1.849035
v 1.415184 0.466949 1.849035
v 1.415184 0.466949 1.849035
v 1.415184 -0.000000 2.315984
v 1.415184 -0.000000 2.315984
v 1.415184 -0.000000 2.315984
v 1.415184 0.330183 1.518852
v 1.415184 0.330183 1.518852
v 1.415184 0.330183 1.518852
v 1.415184 0.330183 2.179218
v 1.415184 0.330183 2.179218
v 1.415184 0.330183 2.179218
v 1.415184 0.330183 2.179218
v 1.415184 0.000000 1.382086
v 1.415184 0.000000 1.382086
v 1.415184 0.000000 1.382086
v 1.415184 -0.004042 -1.857195
v 1.415184 -0.004042 -1.857195
v 1.415184 -0.004042 -1.857195
v 1.415184 0.473610 -1.387627
v 1.415184 0.473610 -1.387627
v 1.415184 0.473610 -1.387627
v 1.415184 0.473610 -1.387627
v 1.415184 0.332035 -1.721336
v 1.415184 0.332035 -1.721336
v 1.415184 0.332035 -1.721336
v 1.415184 0.332035 -1.721336
v 1.415184 0.337751 -1.051550
v 1.415184 0.337751 -1.051550
v 1.415184 0.337751 -1.051550
v 1.415184 0.337751 -1.051550
v 1.415184 0.004042 -0.909975
v 1.415184 0.004042 -0.909975
v 1.415184 0.004042 -0.909975
v -1.415184 1.000000 1.000000
v -1.415184 1.000000 1.000000
v -1.415184 1.000000 1.000000
v -1.415184 1.000000 1.000000
v -1.415184 1.000000 1.000000
v -1.415184 1.000000 1.000000
v -1.415184 0.000000 1.000000
v -1.415184 0.000000 1.000000
v -1.415184 0.000000 1.000000
v -1.415184 0.000000 1.000000
v -1.415184 1.000000 -1.354454
v -1.415184 1.000000 -1.354454
v -1.415184 1.000000 -1.354454
v -1.415184 1.000000 -1.354454
v -1.415184 1.000000 -1.354454
v -1.415184 1.000000 2.698070
v -1.415184 1.000000 2.698070
v -1.415184 1.000000 2.698070
v -1.415184 1.000000 2.698070
v -1.415184 0.000000 2.698070
v -1.415184 0.000000 2.698070
v -1.415184 0.000000 2.698070
v -0.958809 2.066267 0.494700
v -0.958809 2.066267 0.494700
v -0.958809 2.066267 0.494700
v -0.958809 2.066267 -1.000000
v -0.958809 2.066267 -1.000000
v -0.958809 2.066267 -1.000000
v -1.415184 0.000000 -2.348768
v -1.415184 0.000000 -2.348768
v -1.415184 0.000000 -2.348768
v -1.415184 1.000000 -2.348768
v -1.415184 1.000000 -2.348768
v -1.415184 1.000000 -2.348768
v -1.415184 1.000000 -2.348768
v -1.415184 1.000000 1.849035
v -1.415184 1.000000 1.849035
v -1.415184 1.000000 1.849035
v -1.415184 0.466949 1.849035
v -1.415184 0.466949 1.849035
v -1.415184 0.466949 1.849035
v -1.415184 0.466949 1.849035
v -1.415184 -0.000000 2.315984
v -1.415184 -0.000000 2.315984
v -1.415184 -0.000000 2.315984
v -1.415184 0.330183 1.518852
v -1.415184 0.330183 1.518852
v -1.415184 0.330183 1.518852
v -1.415184 0.330183 1.518852
v -1.415184 0.330183 2.179218
v -1.415184 0.330183 2.179218
v -1.415184 0.330183 2.179218
v -1.415184 0.330183 2.179218
v -1.415184 0.000000 1.382086
v -1.415184 0.000000 1.382086
v -1.415184 0.000000 1.382086
v -1.415184 -0.004042 -1.857195
v -1.415184 -0.004042 -1.857195
v -1.415184 -0.004042 -1.857195
v -1.415184 0.473610 -1.387627
v -1.415184 0.473610 -1.387627
v -1.415184 0.473610 -1.387627
v -1.415184 0.473610 -1.387627
v -1.415184 0.332035 -1.721336
v -1.415184 0.332035 -1.721336
v -1.415184 0.332035 -1.721336
v -1.415184 0.332035 -1.721336
v -1.415184 0.337751 -1.051550
v -1.415184 0.337751 -1.051550
v -1.415184 0.337751 -1.051550
v -1.415184 0.337751 -1.051550
v -1.415184 0.004042 -0.909975
v -1.415184 0.004042 -0.909975
v -1.415184 0.004042 -0.909975
vt 0.601562 0.859375
vt 0.523438 0.945312
vt 0.539062 0.992188
vt 0.601562 0.992188
vt 0.109375 0.359375
vt 0.007812 0.359375
vt 0.007812 0.710938
vt 0.109375 0.710938
vt 0.210938 0.859375
vt 0.484375 0.859375
vt 0.437500 0.726562
vt 0.265625 0.726562
vt 0.664062 0.859375
vt 0.976562 0.859375
vt 0.921875 0.734375
vt 0.718750 0.734375
vt 0.656250 0.984375
vt 0.984375 0.984375
vt 0.984375 0.859375
vt 0.656250 0.859375
vt 0.078125 0.945312
vt 0.117188 0.929688
vt 0.117188 0.859375
vt 0.007812 0.859375
vt 0.984375 0.554688
vt 0.656250 0.554688
vt 0.656250 0.679688
vt 0.984375 0.679688
vt 0.625000 0.359375
vt 0.507812 0.359375
vt 0.507812 0.710938
vt 0.625000 0.710938
vt 0.210938 0.859375
vt 0.117188 0.859375
vt 0.117188 0.929688
vt 0.156250 0.945312
vt 0.718750 0.421875
vt 0.664062 0.554688
vt 0.976562 0.554688
vt 0.921875 0.421875
vt 0.484375 0.859375
vt 0.484375 0.929688
vt 0.523438 0.945312
vt 0.601562 0.859375
vt 0.445312 0.656250
vt 0.445312 0.421875
vt 0.265625 0.421875
vt 0.265625 0.656250
vt 0.210938 0.859375
vt 0.210938 0.992188
vt 0.429688 0.992188
vt 0.445312 0.945312
vt 0.210938 0.992188
vt 0.171875 0.992188
vt 0.484375 0.859375
vt 0.210938 0.859375
vt 0.445312 0.945312
vt 0.484375 0.929688
vt 0.062500 0.992188
vt 0.078125 0.945312
vt 0.007812 0.859375
vt 0.007812 0.992188
vt 0.601562 0.859375
vt 0.601562 0.992188
vt 0.539062 0.992188
vt 0.523438 0.945312
vt 0.210938 0.859375
vt 0.265625 0.726562
vt 0.437500 0.726562
vt 0.484375 0.859375
vt 0.078125 0.945312
vt 0.007812 0.859375
vt 0.117188 0.859375
vt 0.117188 0.929688
vt 0.210938 0.859375
vt 0.156250 0.945312
vt 0.117188 0.929688
vt 0.117188 0.859375
vt 0.484375 0.859375
vt 0.601562 0.859375
vt 0.523438 0.945312
vt 0.484375 0.929688
vt 0.210938 0.859375
vt 0.445312 0.945312
vt 0.429688 0.992188
vt 0.210938 0.992188
vt 0.210938 0.992188
vt 0.171875 0.992188
vt 0.156250 0.945312
vt 0.210938 0.859375
vt 0.484375 0.859375
vt 0.484375 0.929688
vt 0.445312 0.945312
vt 0.062500 0.992188
vt 0.007812 0.992188
vt 0.007812 0.859375
vt 0.078125 0.945312
vt 0.218750 0.359375
vt 0.218750 0.710938
vt 0.210938 0.320312
vt 0.414062 0.320312
vt 0.414062 0.023438
vt 0.210938 0.023438
vt 0.445312 0.023438
vt 0.414062 0.023438
vt 0.414062 0.320312
vt 0.445312 0.320312
vt 0.171875 0.320312
vt 0.210938 0.320312
vt 0.210938 0.023438
vt 0.171875 0.023438
vt 0.140625 0.320312
vt 0.171875 0.320312
vt 0.171875 0.023438
vt 0.140625 0.023438
vt 0.093750 0.320312
vt 0.140625 0.320312
vt 0.140625 0.023438
vt 0.093750 0.023438
vt 0.062500 0.320312
vt 0.093750 0.320312
vt 0.093750 0.023438
vt 0.062500 0.023438
vt 0.015625 0.320312
vt 0.062500 0.320312
vt 0.062500 0.023438
vt 0.015625 0.023438
vt 0.476562 0.023438
vt 0.445312 0.023438
vt 0.445312 0.320312
vt 0.476562 0.320312
vt 0.515625 0.023438
vt 0.476562 0.023438
vt 0.476562 0.320312
vt 0.515625 0.320312
vt 0.554688 0.023438
vt 0.515625 0.023438
vt 0.515625 0.320312
vt 0.554688 0.320312
vt 0.593750 0.023438
vt 0.554688 0.023438
vt 0.554688 0.320312
vt 0.593750 0.320312
vt 0.625000 0.023438
vt 0.593750 0.023438
vt 0.593750 0.320312
vt 0.625000 0.320312
vn 1.0000 0.0000 0.0000
vn 0.0000 1.0000 0.0000
vn 0.9193 0.3935 0.0000
vn 0.0000 0.3155 -0.9489
vn 0.0000 0.0000 -1.0000
vn 0.0000 0.0000 1.0000
vn 0.0000 0.4282 0.9037
vn -1.0000 0.0000 0.0000
vn -0.9193 0.3935 0.0000
vn 0.0000 -1.0000 -0.0021
vn 0.0000 -1.0000 0.0000
vn 0.0000 -0.3906 -0.9206
vn 0.0000 -0.9271 -0.3748
vn 0.0000 -0.9206 0.3906
vn 0.0000 -0.3748 0.9271
vn 0.0000 -1.0000 -0.0082
vn 0.0000 -0.3827 0.9239
vn 0.0000 -0.9239 0.3827
vn 0.0000 -0.9239 -0.3827
vn 0.0000 -0.3827 -0.9239
usemtl Material.001
s 1
f 35/1/1 66/2/1 58/3/1
f 35/1/1 58/3/1 31/4/1
f 111/5/2 92/6/2 17/7/2
f 111/5/2 17/7/2 36/8/2
f 3/9/3 13/10/3 28/11/3
f 3/9/3 28/11/3 25/12/3
f 11/13/4 87/14/4 100/15/4
f 11/13/4 100/15/4 26/16/4
f 30/17/5 104/18/5 107/19/5
f 30/17/5 107/19/5 32/20/5
f 52/21/1 42/22/1 38/23/1
f 52/21/1 38/23/1 19/24/1
f 16/25/6 91/26/6 95/27/6
f 16/25/6 95/27/6 21/28/6
f 108/29/2 88/30/2 12/31/2
f 108/29/2 12/31/2 33/32/2
f 6/33/1 37/34/1 41/35/1
f 6/33/1 41/35/1 48/36/1
f 97/37/7 78/38/7 1/39/7
f 97/37/7 1/39/7 23/40/7
f 14/41/1 61/42/1 65/43/1
f 14/41/1 65/43/1 34/44/1
f 27/45/2 101/46/2 98/47/2
f 27/45/2 98/47/2 24/48/2
f 4/49/1 9/50/1 73/51/1
f 4/49/1 73/51/1 69/52/1
f 10/53/1 6/33/1 48/36/1
f 10/53/1 48/36/1 55/54/1
f 15/55/1 5/56/1 70/57/1
f 15/55/1 70/57/1 62/58/1
f 45/59/1 51/60/1 18/61/1
f 45/59/1 18/61/1 22/62/1
f 105/63/8 102/64/8 130/65/8
f 105/63/8 130/65/8 137/66/8
f 77/67/9 96/68/9 99/69/9
f 77/67/9 99/69/9 86/70/9
f 123/71/8 89/72/8 110/73/8
f 123/71/8 110/73/8 113/74/8
f 74/75/8 119/76/8 112/77/8
f 74/75/8 112/77/8 109/78/8
f 85/79/8 106/80/8 138/81/8
f 85/79/8 138/81/8 134/82/8
f 76/83/8 142/84/8 145/85/8
f 76/83/8 145/85/8 81/86/8
f 80/87/8 127/88/8 120/89/8
f 80/87/8 120/89/8 75/90/8
f 84/91/8 133/92/8 141/93/8
f 84/91/8 141/93/8 74/75/8
f 116/94/8 93/95/8 90/96/8
f 116/94/8 90/96/8 124/97/8
f 79/98/2 111/5/2 36/8/2
f 79/98/2 36/8/2 2/99/2
f 71/100/10 8/101/10 83/102/10
f 71/100/10 83/102/10 146/103/10
f 128/104/11 82/105/11 7/106/11
f 128/104/11 7/106/11 53/107/11
f 68/108/12 72/109/12 147/110/12
f 68/108/12 147/110/12 144/111/12
f 59/112/13 67/113/13 143/114/13
f 59/112/13 143/114/13 135/115/13
f 63/116/14 60/117/14 136/118/14
f 63/116/14 136/118/14 139/119/14
f 57/120/15 64/121/15 140/122/15
f 57/120/15 140/122/15 132/123/15
f 29/124/16 56/125/16 131/126/16
f 29/124/16 131/126/16 103/127/16
f 122/128/17 129/129/17 54/130/17
f 122/128/17 54/130/17 47/131/17
f 114/132/18 121/133/18 46/134/18
f 114/132/18 46/134/18 39/135/18
f 125/136/19 115/137/19 40/138/19
f 125/136/19 40/138/19 49/139/19
f 118/140/20 126/141/20 50/142/20
f 118/140/20 50/142/20 44/143/20
f 94/144/11 117/145/11 43/146/11
f 94/144/11 43/146/11 20/147/11
o Object_6_Object_1
v 1.385584 0.220931 1.414839
v 1.385584 0.220931 1.414839
v 1.385584 0.220931 1.414839
v 1.385584 0.475277 1.669185
v 1.385584 0.475277 1.669185
v 1.385584 0.475277 1.669185
v 1.385584 0.475276 2.028885
v 1.385584 0.475276 2.028885
v 1.385584 0.475276 2.028885
v 1.385584 0.220930 2.283231
v 1.385584 0.220930 2.283231
v 1.385584 0.220930 2.283231
v 1.385584 -0.138769 2.283231
v 1.385584 -0.138769 2.283231
v 1.385584 -0.138769 2.283231
v 1.385584 -0.393115 2.028885
v 1.385584 -0.393115 2.028885
v 1.385584 -0.393115 2.028885
v 1.385584 -0.393115 1.669185
v 1.385584 -0.393115 1.669185
v 1.385584 -0.393115 1.669185
v 1.385584 -0.138769 1.414839
v 1.385584 -0.138769 1.414839
v 1.385584 -0.138769 1.414839
v 0.949069 0.220931 1.414839
v 0.949069 0.220931 1.414839
v 0.949069 0.220931 1.414839
v 0.949069 0.475277 1.669185
v 0.949069 0.475277 1.669185
v 0.949069 0.475277 1.669185
v 0.949069 0.475277 2.028885
v 0.949069 0.475277 2.028885
v 0.949069 0.475277 2.028885
v 0.949069 0.220931 2.283231
v 0.949069 0.220931 2.283231
v 0.949069 0.220931 2.283231
v 0.949069 -0.138769 2.283231
v 0.949069 -0.138769 2.283231
v 0.949069 -0.138769 2.283231
v 0.949069 -0.393115 2.028885
v 0.949069 -0.393115 2.028885
v 0.949069 -0.393115 2.028885
v 0.949069 -0.393115 1.669185
v 0.949069 -0.393115 1.669185
v 0.949069 -0.393115 1.669185
v 0.949069 -0.138769 1.414839
v 0.949069 -0.138769 1.414839
v 0.949069 -0.138769 1.414839
v 1.385584 0.041081 1.849035
v 0.949069 0.041081 1.849035
v -1.385584 0.220931 1.414840
v -1.385584 0.220931 1.414840
v -1.385584 0.220931 1.414840
v -1.385584 0.220931 1.414840
v -1.385584 0.475277 1.669185
v -1.385584 0.475277 1.669185
v -1.385584 0.475277 1.669185
v -1.385584 0.475277 2.028885
v -1.385584 0.475277 2.028885
v -1.385584 0.475277 2.028885
v -1.385584 0.220931 2.283231
v -1.385584 0.220931 2.283231
v -1.385584 0.220931 2.283231
v -1.385584 -0.138769 2.283231
v -1.385584 -0.138769 2.283231
v -1.385584 -0.138769 2.283231
v -1.385584 -0.138769 2.283231
v -1.385584 -0.393114 2.028885
v -1.385584 -0.393114 2.028885
v -1.385584 -0.393114 2.028885
v -1.385584 -0.393114 1.669185
v -1.385584 -0.393114 1.669185
v -1.385584 -0.393114 1.669185
v -1.385584 -0.138768 1.414839
v -1.385584 -0.138768 1.414839
v -1.385584 -0.138768 1.414839
v -0.949069 0.220931 1.414840
v -0.949069 0.220931 1.414840
v -0.949069 0.220931 1.414840
v -0.949069 0.220931 1.414840
v -0.949069 0.475277 1.669185
v -0.949069 0.475277 1.669185
v -0.949069 0.475277 1.669185
v -0.949069 0.475277 2.028885
v -0.949069 0.475277 2.028885
v -0.949069 0.475277 2.028885
v -0.949069 0.475277 2.028885
v -0.949069 0.220931 2.283231
v -0.949069 0.220931 2.283231
v -0.949069 0.220931 2.283231
v -0.949069 -0.138769 2.283231
v -0.949069 -0.138769 2.283231
v -0.949069 -0.138769 2.283231
v -0.949069 -0.138769 2.283231
v -0.949069 -0.393114 2.028885
v -0.949069 -0.393114 2.028885
v -0.949069 -0.393114 2.028885
v -0.949069 -0.393114 1.669185
v -0.949069 -0.393114 1.669185
v -0.949069 -0.393114 1.669185
v -0.949069 -0.393114 1.669185
v -0.949069 -0.138768 1.414839
v -0.949069 -0.138768 1.414839
v -0.949069 -0.138768 1.414839
v -1.385584 0.041081 1.849035
v -0.949069 0.041081 1.849035
v -0.949069 0.041081 1.849035
v -0.949069 0.041081 1.849035
v -0.949069 0.041081 1.849035
vt 0.914062 0.257812
vt 0.992188 0.257812
vt 0.992188 0.304688
vt 0.914062 0.304688
vt 0.914062 0.148438
vt 0.992188 0.148438
vt 0.992188 0.203125
vt 0.914062 0.203125
vt 0.914062 0.007812
vt 0.992188 0.007812
vt 0.992188 0.054688
vt 0.914062 0.054688
vt 0.914062 0.304688
vt 0.992188 0.304688
vt 0.992188 0.351562
vt 0.914062 0.351562
vt 0.914062 0.203125
vt 0.992188 0.203125
vt 0.992188 0.257812
vt 0.914062 0.257812
vt 0.914062 0.101562
vt 0.992188 0.101562
vt 0.992188 0.148438
vt 0.914062 0.148438
vt 0.914062 0.054688
vt 0.992188 0.054688
vt 0.992188 0.101562
vt 0.914062 0.101562
vt 0.914062 0.351562
vt 0.992188 0.351562
vt 0.992188 0.398438
vt 0.914062 0.398438
vt 0.718750 0.148438
vt 0.789062 0.171875
vt 0.750000 0.218750
vt 0.695312 0.218750
vt 0.726562 0.312500
vt 0.695312 0.382812
vt 0.757812 0.382812
vt 0.796875 0.343750
vt 0.757812 0.242188
vt 0.796875 0.281250
vt 0.656250 0.281250
vt 0.656250 0.343750
vt 0.695312 0.242188
vt 0.742188 0.078125
vt 0.789062 0.117188
vt 0.648438 0.125000
vt 0.648438 0.179688
vt 0.687500 0.078125
vt 0.914062 0.257812
vt 0.914062 0.304688
vt 0.992188 0.304688
vt 0.992188 0.257812
vt 0.914062 0.148438
vt 0.914062 0.203125
vt 0.992188 0.203125
vt 0.992188 0.148438
vt 0.914062 0.007812
vt 0.914062 0.054688
vt 0.992188 0.054688
vt 0.992188 0.007812
vt 0.914062 0.304688
vt 0.914062 0.351562
vt 0.992188 0.351562
vt 0.992188 0.304688
vt 0.914062 0.203125
vt 0.914062 0.257812
vt 0.992188 0.257812
vt 0.992188 0.203125
vt 0.914062 0.101562
vt 0.914062 0.148438
vt 0.992188 0.148438
vt 0.992188 0.101562
vt 0.914062 0.054688
vt 0.914062 0.101562
vt 0.992188 0.101562
vt 0.992188 0.054688
vt 0.914062 0.351562
vt 0.914062 0.398438
vt 0.992188 0.398438
vt 0.992188 0.351562
vt 0.718750 0.148438
vt 0.695312 0.218750
vt 0.750000 0.218750
vt 0.789062 0.171875
vt 0.726562 0.312500
vt 0.796875 0.343750
vt 0.757812 0.382812
vt 0.695312 0.382812
vt 0.757812 0.242188
vt 0.796875 0.281250
vt 0.656250 0.281250
vt 0.695312 0.382812
vt 0.656250 0.343750
vt 0.695312 0.242188
vt 0.757812 0.242188
vt 0.742188 0.078125
vt 0.718750 0.148438
vt 0.789062 0.171875
vt 0.789062 0.117188
vt 0.648438 0.125000
vt 0.648438 0.179688
vt 0.695312 0.218750
vt 0.718750 0.148438
vt 0.687500 0.078125
vt 0.648438 0.125000
vt 0.718750 0.148438
vt 0.742188 0.078125
vn 0.0000 0.0000 1.0000
vn 0.0000 1.0000 0.0000
vn -0.0000 -0.7071 -0.7071
vn 0.0000 -0.7071 0.7071
vn 0.0000 0.7071 0.7071
vn -0.0000 0.7071 -0.7071
vn 0.0000 0.0000 -1.0000
vn -0.0000 -1.0000 -0.0000
vn -1.0000 0.0000 0.0000
vn 1.0000 -0.0000 -0.0000
usemtl Material.001
s 1
f 158/148/21 182/149/21 184/150/21
f 158/148/21 184/150/21 160/151/21
f 151/152/22 175/153/22 178/154/22
f 151/152/22 178/154/22 154/155/22
f 168/156/23 192/157/23 195/158/23
f 168/156/23 195/158/23 171/159/23
f 162/160/24 186/161/24 188/162/24
f 162/160/24 188/162/24 164/163/24
f 155/164/25 179/165/25 181/166/25
f 155/164/25 181/166/25 157/167/25
f 148/168/26 172/169/26 176/170/26
f 148/168/26 176/170/26 152/171/26
f 170/172/27 194/173/27 174/174/27
f 170/172/27 174/174/27 150/175/27
f 165/176/28 189/177/28 191/178/28
f 165/176/28 191/178/28 167/179/28
f 197/180/29 190/181/29 187/182/29
f 197/180/29 187/182/29 185/183/29
f 196/184/30 161/185/30 163/186/30
f 196/184/30 163/186/30 166/187/30
f 149/188/30 196/184/30 166/187/30
f 149/188/30 166/187/30 169/189/30
f 156/190/30 159/191/30 161/185/30
f 156/190/30 161/185/30 196/184/30
f 153/192/30 156/190/30 196/184/30
f 153/192/30 196/184/30 149/188/30
f 173/193/29 193/194/29 190/181/29
f 173/193/29 190/181/29 197/180/29
f 180/195/29 197/180/29 185/183/29
f 180/195/29 185/183/29 183/196/29
f 177/197/29 173/193/29 197/180/29
f 177/197/29 197/180/29 180/195/29
f 209/198/21 211/199/21 238/200/21
f 209/198/21 238/200/21 236/201/21
f 202/202/22 205/203/22 231/204/22
f 202/202/22 231/204/22 228/205/22
f 220/206/23 223/207/23 251/208/23
f 220/206/23 251/208/23 248/209/23
f 214/210/24 216/211/24 243/212/24
f 214/210/24 243/212/24 241/213/24
f 206/214/25 208/215/25 235/216/25
f 206/214/25 235/216/25 232/217/25
f 198/218/26 203/219/26 229/220/26
f 198/218/26 229/220/26 224/221/26
f 222/222/27 201/223/27 227/224/27
f 222/222/27 227/224/27 250/225/27
f 217/226/28 219/227/28 247/228/28
f 217/226/28 247/228/28 244/229/28
f 255/230/30 240/231/30 242/232/30
f 255/230/30 242/232/30 245/233/30
f 252/234/29 218/235/29 215/236/29
f 252/234/29 215/236/29 213/237/29
f 200/238/29 221/239/29 218/235/29
f 200/238/29 218/235/29 252/234/29
f 207/240/29 252/234/29 212/241/29
f 207/240/29 212/241/29 210/242/29
f 204/243/29 199/244/29 252/234/29
f 204/243/29 252/234/29 207/240/29
f 226/245/30 256/246/30 246/247/30
f 226/245/30 246/247/30 249/248/30
f 234/249/30 237/250/30 239/251/30
f 234/249/30 239/251/30 254/252/30
f 230/253/30 233/254/30 253/255/30
f 230/253/30 253/255/30 225/256/30
o Object_8_Object_2
v 1.385584 0.220930 -1.817780
v 1.385584 0.220930 -1.817780
v 1.385584 0.220930 -1.817780
v 1.385584 0.475276 -1.563434
v 1.385584 0.475276 -1.563434
v 1.385584 0.475276 -1.563434
v 1.385584 0.475276 -1.203735
v 1.385584 0.475276 -1.203735
v 1.385584 0.475276 -1.203735
v 1.385584 0.220930 -0.949389
v 1.385584 0.220930 -0.949389
v 1.385584 0.220930 -0.949389
v 1.385584 -0.138769 -0.949389
v 1.385584 -0.138769 -0.949389
v 1.385584 -0.138769 -0.949389
v 1.385584 -0.393115 -1.203735
v 1.385584 -0.393115 -1.203735
v 1.385584 -0.393115 -1.203735
v 1.385584 -0.393115 -1.563434
v 1.385584 -0.393115 -1.563434
v 1.385584 -0.393115 -1.563434
v 1.385584 -0.138769 -1.817780
v 1.385584 -0.138769 -1.817780
v 1.385584 -0.138769 -1.817780
v 0.949069 0.220931 -1.817780
v 0.949069 0.220931 -1.817780
v 0.949069 0.220931 -1.817780
v 0.949069 0.475277 -1.563434
v 0.949069 0.475277 -1.563434
v 0.949069 0.475277 -1.563434
v 0.949069 0.475277 -1.203735
v 0.949069 0.475277 -1.203735
v 0.949069 0.475277 -1.203735
v 0.949069 0.220931 -0.949389
v 0.949069 0.220931 -0.949389
v 0.949069 0.220931 -0.949389
v 0.949069 -0.138769 -0.949389
v 0.949069 -0.138769 -0.949389
v 0.949069 -0.138769 -0.949389
v 0.949069 -0.393115 -1.203735
v 0.949069 -0.393115 -1.203735
v 0.949069 -0.393115 -1.203735
v 0.949069 -0.393115 -1.563434
v 0.949069 -0.393115 -1.563434
v 0.949069 -0.393115 -1.563434
v 0.949069 -0.138769 -1.817780
v 0.949069 -0.138769 -1.817780
v 0.949069 -0.138769 -1.817780
v 1.385584 0.041081 -1.383585
v 0.949069 0.041081 -1.383585
v -1.385584 0.220931 -1.817780
v -1.385584 0.220931 -1.817780
v -1.385584 0.220931 -1.817780
v -1.385584 0.220931 -1.817780
v -1.385584 0.475277 -1.563434
v -1.385584 0.475277 -1.563434
v -1.385584 0.475277 -1.563434
v -1.385584 0.475277 -1.203735
v -1.385584 0.475277 -1.203735
v -1.385584 0.475277 -1.203735
v -1.385584 0.220931 -0.949389
v -1.385584 0.220931 -0.949389
v -1.385584 0.220931 -0.949389
v -1.385584 -0.138769 -0.949389
v -1.385584 -0.138769 -0.949389
v -1.385584 -0.138769 -0.949389
v -1.385584 -0.138769 -0.949389
v -1.385584 -0.393114 -1.203735
v -1.385584 -0.393114 -1.203735
v -1.385584 -0.393114 -1.203735
v -1.385584 -0.393114 -1.563434
v -1.385584 -0.393114 -1.563434
v -1.385584 -0.393114 -1.563434
v -1.385584 -0.138768 -1.817780
v -1.385584 -0.138768 -1.817780
v -1.385584 -0.138768 -1.817780
v -0.949069 0.220931 -1.817780
v -0.949069 0.220931 -1.817780
v -0.949069 0.220931 -1.817780
v -0.949069 0.220931 -1.817780
v -0.949069 0.475277 -1.563434
v -0.949069 0.475277 -1.563434
v -0.949069 0.475277 -1.563434
v -0.949069 0.475277 -1.203735
v -0.949069 0.475277 -1.203735
v -0.949069 0.475277 -1.203735
v -0.949069 0.475277 -1.203735
v -0.949069 0.220931 -0.949389
v -0.949069 0.220931 -0.949389
v -0.949069 0.220931 -0.949389
v -0.949069 -0.138769 -0.949389
v -0.949069 -0.138769 -0.949389
v -0.949069 -0.138769 -0.949389
v -0.949069 -0.138769 -0.949389
v -0.949069 -0.393115 -1.203735
v -0.949069 -0.393115 -1.203735
v -0.949069 -0.393115 -1.203735
v -0.949069 -0.393114 -1.563435
v -0.949069 -0.393114 -1.563435
v -0.949069 -0.393114 -1.563435
v -0.949069 -0.393114 -1.563435
v -0.949069 -0.138769 -1.817780
v -0.949069 -0.138769 -1.817780
v -0.949069 -0.138769 -1.817780
v -1.385584 0.041081 -1.383585
v -0.949069 0.041081 -1.383585
v -0.949069 0.041081 -1.383585
v -0.949069 0.041081 -1.383585
v -0.949069 0.041081 -1.383585
vt 0.914062 0.257812
vt 0.992188 0.257812
vt 0.992188 0.304688
vt 0.914062 0.304688
vt 0.914062 0.148438
vt 0.992188 0.148438
vt 0.992188 0.203125
vt 0.914062 0.203125
vt 0.914062 0.007812
vt 0.992188 0.007812
vt 0.992188 0.054688
vt 0.914062 0.054688
vt 0.914062 0.304688
vt 0.992188 0.304688
vt 0.992188 0.351562
vt 0.914062 0.351562
vt 0.914062 0.203125
vt 0.992188 0.203125
vt 0.992188 0.257812
vt 0.914062 0.257812
vt 0.914062 0.101562
vt 0.992188 0.101562
vt 0.992188 0.148438
vt 0.914062 0.148438
vt 0.914062 0.054688
vt 0.992188 0.054688
vt 0.992188 0.101562
vt 0.914062 0.101562
vt 0.914062 0.351562
vt 0.992188 0.351562
vt 0.992188 0.398438
vt 0.914062 0.398438
vt 0.718750 0.148438
vt 0.789062 0.179688
vt 0.750000 0.218750
vt 0.687500 0.218750
vt 0.726562 0.312500
vt 0.695312 0.382812
vt 0.757812 0.382812
vt 0.796875 0.343750
vt 0.757812 0.242188
vt 0.796875 0.281250
vt 0.656250 0.281250
vt 0.656250 0.343750
vt 0.695312 0.242188
vt 0.750000 0.078125
vt 0.789062 0.117188
vt 0.648438 0.117188
vt 0.648438 0.179688
vt 0.687500 0.078125
vt 0.914062 0.257812
vt 0.914062 0.304688
vt 0.992188 0.304688
vt 0.992188 0.257812
vt 0.914062 0.148438
vt 0.914062 0.203125
vt 0.992188 0.203125
vt 0.992188 0.148438
vt 0.914062 0.007812
vt 0.914062 0.054688
vt 0.992188 0.054688
vt 0.992188 0.007812
vt 0.914062 0.304688
vt 0.914062 0.351562
vt 0.992188 0.351562
vt 0.992188 0.304688
vt 0.914062 0.203125
vt 0.914062 0.257812
vt 0.992188 0.257812
vt 0.992188 0.203125
vt 0.914062 0.101562
vt 0.914062 0.148438
vt 0.992188 0.148438
vt 0.992188 0.101562
vt 0.914062 0.054688
vt 0.914062 0.101562
vt 0.992188 0.101562
vt 0.992188 0.054688
vt 0.914062 0.351562
vt 0.914062 0.398438
vt 0.992188 0.398438
vt 0.992188 0.351562
vt 0.718750 0.148438
vt 0.687500 0.218750
vt 0.750000 0.218750
vt 0.789062 0.179688
vt 0.726562 0.312500
vt 0.796875 0.343750
vt 0.757812 0.382812
vt 0.695312 0.382812
vt 0.757812 0.242188
vt 0.796875 0.281250
vt 0.656250 0.281250
vt 0.695312 0.382812
vt 0.656250 0.343750
vt 0.695312 0.242188
vt 0.757812 0.242188
vt 0.750000 0.078125
vt 0.718750 0.148438
vt 0.789062 0.179688
vt 0.789062 0.117188
vt 0.648438 0.117188
vt 0.648438 0.179688
vt 0.687500 0.218750
vt 0.718750 0.148438
vt 0.687500 0.078125
vt 0.648438 0.117188
vt 0.718750 0.148438
vt 0.750000 0.078125
vn 0.0000 -0.0000 1.0000
vn 0.0000 1.0000 0.0000
vn -0.0000 -0.7071 -0.7071
vn -0.0000 -0.7071 0.7071
vn 0.0000 0.7071 0.7071
vn 0.0000 0.7071 -0.7071
vn -0.0000 0.0000 -1.0000
vn -0.0000 -1.0000 -0.0000
vn -1.0000 0.0000 0.0000
vn 1.0000 -0.0000 -0.0000
usemtl Material.001
s 1
f 267/257/31 291/258/31 293/259/31
f 267/257/31 293/259/31 269/260/31
f 260/261/32 284/262/32 287/263/32
f 260/261/32 287/263/32 263/264/32
f 277/265/33 301/266/33 304/267/33
f 277/265/33 304/267/33 280/268/33
f 271/269/34 295/270/34 297/271/34
f 271/269/34 297/271/34 273/272/34
f 264/273/35 288/274/35 290/275/35
f 264/273/35 290/275/35 266/276/35
f 257/277/36 281/278/36 285/279/36
f 257/277/36 285/279/36 261/280/36
f 279/281/37 303/282/37 283/283/37
f 279/281/37 283/283/37 259/284/37
f 274/285/38 298/286/38 300/287/38
f 274/285/38 300/287/38 276/288/38
f 306/289/39 299/290/39 296/291/39
f 306/289/39 296/291/39 294/292/39
f 305/293/40 270/294/40 272/295/40
f 305/293/40 272/295/40 275/296/40
f 258/297/40 305/293/40 275/296/40
f 258/297/40 275/296/40 278/298/40
f 265/299/40 268/300/40 270/294/40
f 265/299/40 270/294/40 305/293/40
f 262/301/40 265/299/40 305/293/40
f 262/301/40 305/293/40 258/297/40
f 282/302/39 302/303/39 299/290/39
f 282/302/39 299/290/39 306/289/39
f 289/304/39 306/289/39 294/292/39
f 289/304/39 294/292/39 292/305/39
f 286/306/39 282/302/39 306/289/39
f 286/306/39 306/289/39 289/304/39
f 318/307/31 320/308/31 347/309/31
f 318/307/31 347/309/31 345/310/31
f 311/311/32 314/312/32 340/313/32
f 311/311/32 340/313/32 337/314/32
f 329/315/33 332/316/33 360/317/33
f 329/315/33 360/317/33 357/318/33
f 323/319/34 325/320/34 352/321/34
f 323/319/34 352/321/34 350/322/34
f 315/323/35 317/324/35 344/325/35
f 315/323/35 344/325/35 341/326/35
f 307/327/36 312/328/36 338/329/36
f 307/327/36 338/329/36 333/330/36
f 331/331/37 310/332/37 336/333/37
f 331/331/37 336/333/37 359/334/37
f 326/335/38 328/336/38 356/337/38
f 326/335/38 356/337/38 353/338/38
f 364/339/40 349/340/40 351/341/40
f 364/339/40 351/341/40 354/342/40
f 361/343/39 327/344/39 324/345/39
f 361/343/39 324/345/39 322/346/39
f 309/347/39 330/348/39 327/344/39
f 309/347/39 327/344/39 361/343/39
f 316/349/39 361/343/39 321/350/39
f 316/349/39 321/350/39 319/351/39
f 313/352/39 308/353/39 361/343/39
f 313/352/39 361/343/39 316/349/39
f 335/354/40 365/355/40 355/356/40
f 335/354/40 355/356/40 358/357/40
f 343/358/40 346/359/40 348/360/40
f 343/358/40 348/360/40 363/361/40
f 339/362/40 342/363/40 362/364/40
f 339/362/40 362/364/40 334/365/40
o Object_10_Object_3
v 0.949069 0.041081 1.749035
v 0.949069 0.041081 1.749035
v 0.949069 0.141081 1.849035
v 0.949069 0.141081 1.849035
v 0.949069 0.041081 1.949035
v 0.949069 0.041081 1.949035
v 0.949069 -0.058919 1.849035
v 0.949069 -0.058919 1.849035
v -0.949069 0.041081 1.749035
v -0.949069 0.041081 1.749035
v -0.949069 0.141081 1.849035
v -0.949069 0.141081 1.849035
v -0.949069 0.041081 1.949035
v -0.949069 0.041081 1.949035
v -0.949069 -0.058919 1.849035
v -0.949069 -0.058919 1.849035
vt 0.828125 0.398438
vt 0.835938 0.398438
vt 0.835938 0.007812
vt 0.828125 0.007812
vt 0.812500 0.398438
vt 0.820312 0.398438
vt 0.820312 0.007812
vt 0.812500 0.007812
vt 0.820312 0.398438
vt 0.828125 0.398438
vt 0.828125 0.007812
vt 0.820312 0.007812
vt 0.835938 0.398438
vt 0.843750 0.398438
vt 0.843750 0.007812
vt 0.835938 0.007812
vn 0.0000 -0.7071 0.7071
vn 0.0000 0.7071 -0.7071
vn 0.0000 -0.7071 -0.7071
vn 0.0000 0.7071 0.7071
usemtl Material.001
s 1
f 373/366/41 371/367/41 379/368/41
f 373/366/41 379/368/41 381/369/41
f 368/370/42 366/371/42 374/372/42
f 368/370/42 374/372/42 376/373/42
f 367/374/43 372/375/43 380/376/43
f 367/374/43 380/376/43 375/377/43
f 370/378/44 369/379/44 377/380/44
f 370/378/44 377/380/44 378/381/44
o Object_12_Object_4
v 0.949069 0.041081 -1.483585
v 0.949069 0.041081 -1.483585
v 0.949069 0.141081 -1.383584
v 0.949069 0.141081 -1.383584
v 0.949069 0.041081 -1.283584
v 0.949069 0.041081 -1.283584
v 0.949069 -0.058919 -1.383584
v 0.949069 -0.058919 -1.383584
v -0.949069 0.041081 -1.483585
v -0.949069 0.041081 -1.483585
v -0.949069 0.141081 -1.383584
v -0.949069 0.141081 -1.383584
v -0.949069 0.041081 -1.283584
v -0.949069 0.041081 -1.283584
v -0.949069 -0.058919 -1.383584
v -0.949069 -0.058919 -1.383584
vt 0.828125 0.398438
vt 0.835938 0.398438
vt 0.835938 0.007812
vt 0.828125 0.007812
vt 0.812500 0.398438
vt 0.820312 0.398438
vt 0.820312 0.007812
vt 0.812500 0.007812
vt 0.820312 0.398438
vt 0.828125 0.398438
vt 0.828125 0.007812
vt 0.820312 0.007812
vt 0.835938 0.398438
vt 0.843750 0.398438
vt 0.843750 0.007812
vt 0.835938 0.007812
vn 0.0000 -0.7071 0.7071
vn 0.0000 0.7071 -0.7071
vn 0.0000 -0.7071 -0.7071
vn 0.0000 0.7071 0.7071
usemtl Material.001
s 1
f 389/382/45 387/383/45 395/384/45
f 389/382/45 395/384/45 397/385/45
f 384/386/46 382/387/46 390/388/46
f 384/386/46 390/388/46 392/389/46
f 383/390/47 388/391/47 396/392/47
f 383/390/47 396/392/47 391/393/47
f 386/394/48 385/395/48 393/396/48
f 386/394/48 393/396/48 394/397/48
