# Blender v2.83.20 OBJ File: ''
# www.blender.org
mtllib carro_cofre.mtl
o cofre_Object_4_Object_0.001
v -1.415184 -0.001949 0.845323
v -1.415184 -0.001949 1.694358
v 1.415184 -0.001949 1.694358
v 1.415184 -0.001949 0.845323
v -1.415184 -0.001949 -0.003712
v 1.415184 -0.001949 -0.003712
vt 0.109375 0.359375
vt 0.007812 0.359375
vt 0.007812 0.710938
vt 0.109375 0.710938
vt 0.218750 0.359375
vt 0.218750 0.710938
vn 0.0000 1.0000 0.0000
usemtl Material.001
s 1
f 1/1/1 2/2/1 3/3/1
f 1/1/1 3/3/1 4/4/1
f 5/5/1 1/1/1 4/4/1
f 5/5/1 4/4/1 6/6/1
