# Blender v2.83.20 OBJ File: ''
# www.blender.org
mtllib carro_base.mtl
o Object_4_Object_0
v 1.415184 1.000000 -2.348768
v 1.415184 0.332035 -1.721336
v 1.415184 -0.004042 -1.857195
v 1.415184 0.000000 -2.348768
v -1.415184 1.000000 1.849035
v -1.415184 1.000000 2.698070
v 1.415184 1.000000 2.698070
v 1.415184 1.000000 1.849035
v 1.415184 1.000000 1.000000
v 1.415184 1.000000 -1.354454
v 0.958809 2.066267 -1.000000
v 0.958809 2.066267 0.494700
v 1.415184 1.000000 -1.354454
v -1.415184 1.000000 -1.354454
v -0.958809 2.066267 -1.000000
v 0.958809 2.066267 -1.000000
v 1.415184 0.000000 -2.348768
v -1.415184 0.000000 -2.348768
v -1.415184 1.000000 -2.348768
v 1.415184 1.000000 -2.348768
v 1.415184 0.330183 2.179218
v 1.415184 0.466949 1.849035
v 1.415184 1.000000 1.849035
v 1.415184 1.000000 2.698070
v 1.415184 1.000000 2.698070
v -1.415184 1.000000 2.698070
v -1.415184 -0.000000 2.698070
v 1.415184 -0.000000 2.698070
v -1.415184 1.000000 -2.348768
v -1.415184 1.000000 -1.354454
v 1.415184 1.000000 -1.354454
v 1.415184 1.000000 -2.348768
v 1.415184 1.000000 1.000000
v 1.415184 1.000000 1.849035
v 1.415184 0.466949 1.849035
v 1.415184 0.330183 1.518852
v -0.958809 2.066267 0.494700
v -1.415184 1.000000 1.000000
v 1.415184 1.000000 1.000000
v 0.958809 2.066267 0.494700
v 1.415184 1.000000 -1.354454
v 1.415184 0.473610 -1.387627
v 1.415184 0.332035 -1.721336
v 1.415184 1.000000 -2.348768
v 0.958809 2.066267 -1.000000
v -0.958809 2.066267 -1.000000
v -0.958809 2.066267 0.494700
v 0.958809 2.066267 0.494700
v 1.415184 1.000000 1.000000
v 1.415184 -0.000000 1.000000
v 1.415184 0.004042 -0.909975
v 1.415184 0.337751 -1.051550
v 1.415184 -0.000000 1.000000
v 1.415184 -0.000000 1.382086
v 1.415184 1.000000 -1.354454
v 1.415184 1.000000 1.000000
v 1.415184 0.337751 -1.051550
v 1.415184 0.473610 -1.387627
v 1.415184 -0.000000 2.315984
v 1.415184 0.330183 2.179218
v 1.415184 1.000000 2.698070
v 1.415184 -0.000000 2.698070
v -1.415184 1.000000 -2.348768
v -1.415184 0.000000 -2.348768
v -1.415184 -0.004042 -1.857195
v -1.415184 0.332035 -1.721336
v -1.415184 1.000000 1.000000
v -0.958809 2.066267 0.494700
v -0.958809 2.066267 -1.000000
v -1.415184 1.000000 -1.354454
v -1.415184 0.330183 2.179218
v -1.415184 1.000000 2.698070
v -1.415184 1.000000 1.849035
v -1.415184 0.466949 1.849035
v -1.415184 1.000000 1.000000
v -1.415184 0.330183 1.518852
v -1.415184 0.466949 1.849035
v -1.415184 1.000000 1.849035
v -1.415184 1.000000 -1.354454
v -1.415184 1.000000 -2.348768
v -1.415184 0.332035 -1.721336
v -1.415184 0.473610 -1.387627
v -1.415184 1.000000 1.000000
v -1.415184 0.337751 -1.051550
v -1.415184 0.004042 -0.909975
v -1.415184 -0.000000 1.000000
v -1.415184 -0.000000 1.000000
v -1.415184 -0.000000 1.382086
v -1.415184 0.330183 1.518852
v -1.415184 1.000000 1.000000
v -1.415184 1.000000 -1.354454
v -1.415184 0.473610 -1.387627
v -1.415184 0.337751 -1.051550
v -1.415184 -0.000000 2.315984
v -1.415184 -0.000000 2.698070
v -1.415184 1.000000 2.698070
v -1.415184 0.330183 2.179218
v -1.415184 1.000000 1.000000
v 1.415184 1.000000 1.000000
v 1.415184 0.004042 -0.909975
v 1.415184 -0.000000 1.000000
v -1.415184 -0.000000 1.000000
v -1.415184 0.004042 -0.909975
v -1.415184 -0.000000 1.382086
v -1.415184 -0.000000 1.000000
v 1.415184 -0.000000 1.000000
v 1.415184 -0.000000 1.382086
v 1.415184 0.337751 -1.051550
v 1.415184 0.004042 -0.909975
v -1.415184 0.004042 -0.909975
v -1.415184 0.337751 -1.051550
v 1.415184 0.473610 -1.387627
v 1.415184 0.337751 -1.051550
v -1.415184 0.337751 -1.051550
v -1.415184 0.473610 -1.387627
v 1.415184 0.332035 -1.721336
v 1.415184 0.473610 -1.387627
v -1.415184 0.473610 -1.387627
v -1.415184 0.332035 -1.721336
v 1.415184 -0.004042 -1.857195
v 1.415184 0.332035 -1.721336
v -1.415184 0.332035 -1.721336
v -1.415184 -0.004042 -1.857195
v 1.415184 0.000000 -2.348768
v 1.415184 -0.004042 -1.857195
v -1.415184 -0.004042 -1.857195
v -1.415184 0.000000 -2.348768
v -1.415184 0.330183 1.518852
v -1.415184 -0.000000 1.382086
v 1.415184 -0.000000 1.382086
v 1.415184 0.330183 1.518852
v -1.415184 0.466949 1.849035
v -1.415184 0.330183 1.518852
v 1.415184 0.330183 1.518852
v 1.415184 0.466949 1.849035
v -1.415184 0.330183 2.179218
v -1.415184 0.466949 1.849035
v 1.415184 0.466949 1.849035
v 1.415184 0.330183 2.179218
v -1.415184 -0.000000 2.315984
v -1.415184 0.330183 2.179218
v 1.415184 0.330183 2.179218
v 1.415184 -0.000000 2.315984
v -1.415184 -0.000000 2.698070
v -1.415184 -0.000000 2.315984
v 1.415184 -0.000000 2.315984
v 1.415184 -0.000000 2.698070
vt 0.601562 0.859375
vt 0.523438 0.945312
vt 0.539062 0.992188
vt 0.601562 0.992188
vt 0.109375 0.359375
vt 0.007812 0.359375
vt 0.007812 0.710938
vt 0.109375 0.710938
vt 0.210938 0.859375
vt 0.484375 0.859375
vt 0.437500 0.726562
vt 0.265625 0.726562
vt 0.664062 0.859375
vt 0.976562 0.859375
vt 0.921875 0.734375
vt 0.718750 0.734375
vt 0.656250 0.984375
vt 0.984375 0.984375
vt 0.984375 0.859375
vt 0.656250 0.859375
vt 0.078125 0.945312
vt 0.117188 0.929688
vt 0.117188 0.859375
vt 0.007812 0.859375
vt 0.984375 0.554688
vt 0.656250 0.554688
vt 0.656250 0.679688
vt 0.984375 0.679688
vt 0.625000 0.359375
vt 0.507812 0.359375
vt 0.507812 0.710938
vt 0.625000 0.710938
vt 0.210938 0.859375
vt 0.117188 0.859375
vt 0.117188 0.929688
vt 0.156250 0.945312
vt 0.718750 0.421875
vt 0.664062 0.554688
vt 0.976562 0.554688
vt 0.921875 0.421875
vt 0.484375 0.859375
vt 0.484375 0.929688
vt 0.523438 0.945312
vt 0.601562 0.859375
vt 0.445312 0.656250
vt 0.445312 0.421875
vt 0.265625 0.421875
vt 0.265625 0.656250
vt 0.210938 0.859375
vt 0.210938 0.992188
vt 0.429688 0.992188
vt 0.445312 0.945312
vt 0.210938 0.992188
vt 0.171875 0.992188
vt 0.484375 0.859375
vt 0.210938 0.859375
vt 0.445312 0.945312
vt 0.484375 0.929688
vt 0.062500 0.992188
vt 0.078125 0.945312
vt 0.007812 0.859375
vt 0.007812 0.992188
vt 0.601562 0.859375
vt 0.601562 0.992188
vt 0.539062 0.992188
vt 0.523438 0.945312
vt 0.210938 0.859375
vt 0.265625 0.726562
vt 0.437500 0.726562
vt 0.484375 0.859375
vt 0.078125 0.945312
vt 0.007812 0.859375
vt 0.117188 0.859375
vt 0.117188 0.929688
vt 0.210938 0.859375
vt 0.156250 0.945312
vt 0.117188 0.929688
vt 0.117188 0.859375
vt 0.484375 0.859375
vt 0.601562 0.859375
vt 0.523438 0.945312
vt 0.484375 0.929688
vt 0.210938 0.859375
vt 0.445312 0.945312
vt 0.429688 0.992188
vt 0.210938 0.992188
vt 0.210938 0.992188
vt 0.171875 0.992188
vt 0.156250 0.945312
vt 0.210938 0.859375
vt 0.484375 0.859375
vt 0.484375 0.929688
vt 0.445312 0.945312
vt 0.062500 0.992188
vt 0.007812 0.992188
vt 0.007812 0.859375
vt 0.078125 0.945312
vt 0.218750 0.359375
vt 0.218750 0.710938
vt 0.210938 0.320312
vt 0.414062 0.320312
vt 0.414062 0.023438
vt 0.210938 0.023438
vt 0.445312 0.023438
vt 0.414062 0.023438
vt 0.414062 0.320312
vt 0.445312 0.320312
vt 0.171875 0.320312
vt 0.210938 0.320312
vt 0.210938 0.023438
vt 0.171875 0.023438
vt 0.140625 0.320312
vt 0.171875 0.320312
vt 0.171875 0.023438
vt 0.140625 0.023438
vt 0.093750 0.320312
vt 0.140625 0.320312
vt 0.140625 0.023438
vt 0.093750 0.023438
vt 0.062500 0.320312
vt 0.093750 0.320312
vt 0.093750 0.023438
vt 0.062500 0.023438
vt 0.015625 0.320312
vt 0.062500 0.320312
vt 0.062500 0.023438
vt 0.015625 0.023438
vt 0.476562 0.023438
vt 0.445312 0.023438
vt 0.445312 0.320312
vt 0.476562 0.320312
vt 0.515625 0.023438
vt 0.476562 0.023438
vt 0.476562 0.320312
vt 0.515625 0.320312
vt 0.554688 0.023438
vt 0.515625 0.023438
vt 0.515625 0.320312
vt 0.554688 0.320312
vt 0.593750 0.023438
vt 0.554688 0.023438
vt 0.554688 0.320312
vt 0.593750 0.320312
vt 0.625000 0.023438
vt 0.593750 0.023438
vt 0.593750 0.320312
vt 0.625000 0.320312
vn 1.0000 -0.0000 0.0000
vn 0.0000 1.0000 0.0000
vn 0.9193 0.3935 0.0000
vn 0.0000 0.3155 -0.9489
vn 0.0000 0.0000 -1.0000
vn 0.0000 -0.0000 1.0000
vn 0.0000 0.4282 0.9037
vn -1.0000 -0.0000 0.0000
vn -0.9193 0.3935 0.0000
vn 0.0000 -1.0000 -0.0021
vn 0.0000 -1.0000 -0.0000
vn 0.0000 -0.3906 -0.9206
vn 0.0000 -0.9271 -0.3748
vn 0.0000 -0.9206 0.3906
vn 0.0000 -0.3748 0.9271
vn 0.0000 -1.0000 -0.0082
vn 0.0000 -0.3827 0.9239
vn 0.0000 -0.9239 0.3827
vn 0.0000 -0.9239 -0.3827
vn 0.0000 -0.3827 -0.9239
usemtl Material.001
s 1
f 1/1/1 2/2/1 3/3/1
f 1/1/1 3/3/1 4/4/1
f 5/5/2 6/6/2 7/7/2
f 5/5/2 7/7/2 8/8/2
f 9/9/3 10/10/3 11/11/3
f 9/9/3 11/11/3 12/12/3
f 13/13/4 14/14/4 15/15/4
f 13/13/4 15/15/4 16/16/4
f 17/17/5 18/18/5 19/19/5
f 17/17/5 19/19/5 20/20/5
f 21/21/1 22/22/1 23/23/1
f 21/21/1 23/23/1 24/24/1
f 25/25/6 26/26/6 27/27/6
f 25/25/6 27/27/6 28/28/6
f 29/29/2 30/30/2 31/31/2
f 29/29/2 31/31/2 32/32/2
f 33/33/1 34/34/1 35/35/1
f 33/33/1 35/35/1 36/36/1
f 37/37/7 38/38/7 39/39/7
f 37/37/7 39/39/7 40/40/7
f 41/41/1 42/42/1 43/43/1
f 41/41/1 43/43/1 44/44/1
f 45/45/2 46/46/2 47/47/2
f 45/45/2 47/47/2 48/48/2
f 49/49/1 50/50/1 51/51/1
f 49/49/1 51/51/1 52/52/1
f 53/53/1 33/33/1 36/36/1
f 53/53/1 36/36/1 54/54/1
f 55/55/1 56/56/1 57/57/1
f 55/55/1 57/57/1 58/58/1
f 59/59/1 60/60/1 61/61/1
f 59/59/1 61/61/1 62/62/1
f 63/63/8 64/64/8 65/65/8
f 63/63/8 65/65/8 66/66/8
f 67/67/9 68/68/9 69/69/9
f 67/67/9 69/69/9 70/70/9
f 71/71/8 72/72/8 73/73/8
f 71/71/8 73/73/8 74/74/8
f 75/75/8 76/76/8 77/77/8
f 75/75/8 77/77/8 78/78/8
f 79/79/8 80/80/8 81/81/8
f 79/79/8 81/81/8 82/82/8
f 83/83/8 84/84/8 85/85/8
f 83/83/8 85/85/8 86/86/8
f 87/87/8 88/88/8 89/89/8
f 87/87/8 89/89/8 90/90/8
f 91/91/8 92/92/8 93/93/8
f 91/91/8 93/93/8 75/75/8
f 94/94/8 95/95/8 96/96/8
f 94/94/8 96/96/8 97/97/8
f 98/98/2 5/5/2 8/8/2
f 98/98/2 8/8/2 99/99/2
f 100/100/10 101/101/10 102/102/10
f 100/100/10 102/102/10 103/103/10
f 104/104/11 105/105/11 106/106/11
f 104/104/11 106/106/11 107/107/11
f 108/108/12 109/109/12 110/110/12
f 108/108/12 110/110/12 111/111/12
f 112/112/13 113/113/13 114/114/13
f 112/112/13 114/114/13 115/115/13
f 116/116/14 117/117/14 118/118/14
f 116/116/14 118/118/14 119/119/14
f 120/120/15 121/121/15 122/122/15
f 120/120/15 122/122/15 123/123/15
f 124/124/16 125/125/16 126/126/16
f 124/124/16 126/126/16 127/127/16
f 128/128/17 129/129/17 130/130/17
f 128/128/17 130/130/17 131/131/17
f 132/132/18 133/133/18 134/134/18
f 132/132/18 134/134/18 135/135/18
f 136/136/19 137/137/19 138/138/19
f 136/136/19 138/138/19 139/139/19
f 140/140/20 141/141/20 142/142/20
f 140/140/20 142/142/20 143/143/20
f 144/144/11 145/145/11 146/146/11
f 144/144/11 146/146/11 147/147/11
