# Blender v2.83.20 OBJ File: ''
# www.blender.org
mtllib carro_llanta.mtl
o llanta_Object_6_Object_1.001
v 0.226415 0.170525 0.430896
v -0.210100 0.170526 0.430896
v -0.210100 -0.189174 0.430896
v 0.226415 -0.189174 0.430896
v 0.226415 0.424873 -0.183150
v -0.210100 0.424873 -0.183150
v -0.210100 0.424872 0.176550
v 0.226415 0.424871 0.176550
v 0.226415 -0.443519 -0.183150
v -0.210100 -0.443519 -0.183150
v -0.210100 -0.189173 -0.437496
v 0.226415 -0.189173 -0.437496
v 0.226415 -0.189174 0.430896
v -0.210100 -0.189174 0.430896
v -0.210100 -0.443520 0.176549
v 0.226415 -0.443520 0.176549
v 0.226415 0.424871 0.176550
v -0.210100 0.424872 0.176550
v -0.210100 0.170526 0.430896
v 0.226415 0.170525 0.430896
v 0.226415 0.170527 -0.437496
v -0.210100 0.170527 -0.437496
v -0.210100 0.424873 -0.183150
v 0.226415 0.424873 -0.183150
v 0.226415 -0.189173 -0.437496
v -0.210100 -0.189173 -0.437496
v -0.210100 0.170527 -0.437496
v 0.226415 0.170527 -0.437496
v 0.226415 -0.443520 0.176549
v -0.210100 -0.443520 0.176549
v -0.210100 -0.443519 -0.183150
v 0.226415 -0.443519 -0.183150
v -0.210100 -0.009324 -0.003300
v -0.210100 -0.443519 -0.183150
v -0.210100 -0.443520 0.176549
v -0.210100 -0.189174 0.430896
v 0.226415 -0.009324 -0.003300
v 0.226415 -0.189174 0.430896
v 0.226415 -0.443520 0.176549
v 0.226415 -0.443519 -0.183150
v 0.226415 0.170527 -0.437496
v 0.226415 -0.189173 -0.437496
v 0.226415 0.424871 0.176550
v 0.226415 0.170525 0.430896
v 0.226415 0.424873 -0.183150
v -0.210100 0.170527 -0.437496
v -0.210100 -0.189173 -0.437496
v -0.210100 0.424872 0.176550
v -0.210100 0.170526 0.430896
v -0.210100 0.424873 -0.183150
vt 0.914062 0.257812
vt 0.992188 0.257812
vt 0.992188 0.304688
vt 0.914062 0.304688
vt 0.914062 0.148438
vt 0.992188 0.148438
vt 0.992188 0.203125
vt 0.914062 0.203125
vt 0.914062 0.007812
vt 0.992188 0.007812
vt 0.992188 0.054688
vt 0.914062 0.054688
vt 0.914062 0.304688
vt 0.992188 0.304688
vt 0.992188 0.351562
vt 0.914062 0.351562
vt 0.914062 0.203125
vt 0.992188 0.203125
vt 0.992188 0.257812
vt 0.914062 0.257812
vt 0.914062 0.101562
vt 0.992188 0.101562
vt 0.992188 0.148438
vt 0.914062 0.148438
vt 0.914062 0.054688
vt 0.992188 0.054688
vt 0.992188 0.101562
vt 0.914062 0.101562
vt 0.914062 0.351562
vt 0.992188 0.351562
vt 0.992188 0.398438
vt 0.914062 0.398438
vt 0.718750 0.148438
vt 0.789062 0.171875
vt 0.750000 0.218750
vt 0.695312 0.218750
vt 0.726562 0.312500
vt 0.695312 0.382812
vt 0.757812 0.382812
vt 0.796875 0.343750
vt 0.757812 0.242188
vt 0.796875 0.281250
vt 0.656250 0.281250
vt 0.656250 0.343750
vt 0.695312 0.242188
vt 0.742188 0.078125
vt 0.789062 0.117188
vt 0.648438 0.125000
vt 0.648438 0.179688
vt 0.687500 0.078125
vn 0.0000 -0.0000 1.0000
vn 0.0000 1.0000 0.0000
vn 0.0000 -0.7071 -0.7071
vn 0.0000 -0.7071 0.7071
vn 0.0000 0.7071 0.7071
vn 0.0000 0.7071 -0.7071
vn 0.0000 0.0000 -1.0000
vn 0.0000 -1.0000 -0.0000
vn -1.0000 0.0000 0.0000
vn 1.0000 -0.0000 0.0000
usemtl Material.001
s 1
f 1/1/1 2/2/1 3/3/1
f 1/1/1 3/3/1 4/4/1
f 5/5/2 6/6/2 7/7/2
f 5/5/2 7/7/2 8/8/2
f 9/9/3 10/10/3 11/11/3
f 9/9/3 11/11/3 12/12/3
f 13/13/4 14/14/4 15/15/4
f 13/13/4 15/15/4 16/16/4
f 17/17/5 18/18/5 19/19/5
f 17/17/5 19/19/5 20/20/5
f 21/21/6 22/22/6 23/23/6
f 21/21/6 23/23/6 24/24/6
f 25/25/7 26/26/7 27/27/7
f 25/25/7 27/27/7 28/28/7
f 29/29/8 30/30/8 31/31/8
f 29/29/8 31/31/8 32/32/8
f 33/33/9 34/34/9 35/35/9
f 33/33/9 35/35/9 36/36/9
f 37/37/10 38/38/10 39/39/10
f 37/37/10 39/39/10 40/40/10
f 41/41/10 37/37/10 40/40/10
f 41/41/10 40/40/10 42/42/10
f 43/43/10 44/44/10 38/38/10
f 43/43/10 38/38/10 37/37/10
f 45/45/10 43/43/10 37/37/10
f 45/45/10 37/37/10 41/41/10
f 46/46/9 47/47/9 34/34/9
f 46/46/9 34/34/9 33/33/9
f 48/48/9 33/33/9 36/36/9
f 48/48/9 36/36/9 49/49/9
f 50/50/9 46/46/9 33/33/9
f 50/50/9 33/33/9 48/48/9
