# Blender v2.83.20 OBJ File: ''
# www.blender.org
mtllib pecera.mtl
o Cube.001
v -1.000000 1.000000 -1.000000
v 1.000000 1.000000 1.000000
v 1.000000 1.000000 -1.000000
v -1.000000 -1.000000 1.000000
v 1.000000 -1.000000 1.000000
v -1.000000 1.000000 1.000000
v -1.000000 -1.000000 -1.000000
v 1.000000 -1.000000 -1.000000
v -1.000000 0.632034 -1.000000
v 1.000000 0.632034 1.000000
v 1.000000 0.632034 -1.000000
v -1.000000 0.632034 1.000000
vt 0.333333 0.666667
vt 0.000000 1.000000
vt 0.000000 0.666667
vt 0.333333 0.000000
vt 0.666667 0.333333
vt 0.333333 0.333333
vt -0.000651 0.668620
vt 0.332682 0.335286
vt 0.332682 0.668620
vt 0.333333 0.333333
vt 0.000000 0.000000
vt 0.333333 0.000000
vt 1.000000 0.333333
vt 0.666667 0.000000
vt 1.000000 0.000000
vt 0.333333 1.000000
vt 0.666667 0.000000
vt 0.333333 0.666667
vt 0.333333 0.333333
vt 0.666667 0.333333
vt 0.000000 0.333333
vt 0.666667 0.333333
vt 0.992998 0.996009
vt 0.551273 0.554772
vt 0.992998 0.554772
vt 0.551273 0.996009
vn 0.0000 -0.0000 1.0000
vn -1.0000 -0.0000 0.0000
vn 0.0000 -1.0000 -0.0000
vn 1.0000 -0.0000 0.0000
vn 0.0000 0.0000 -1.0000
vn 0.0000 1.0000 0.0000
g Cube.001_Cube.001_Material.002
usemtl Material.002
s 1
f 2/1/1 4/2/1 5/3/1
f 6/4/2 7/5/2 4/6/2
f 8/7/3 4/8/3 7/9/3
f 3/10/4 5/11/4 8/12/4
f 1/13/5 8/14/5 7/15/5
f 2/1/1 6/16/1 4/2/1
f 6/4/2 1/17/2 7/5/2
f 8/18/3 5/19/3 4/20/3
f 3/10/4 2/21/4 5/11/4
f 1/13/5 3/22/5 8/14/5
f 9/23/6 10/24/6 11/25/6
f 9/23/6 12/26/6 10/24/6
